<svg width="40" height="40" viewBox="0 0 40 40" fill="none" xmlns="http://www.w3.org/2000/svg">
<path d="M30.2708 36.5556C28.3111 38.4554 26.1714 38.1554 24.1116 37.2555C21.9319 36.3357 19.9321 36.2957 17.6324 37.2555C14.7528 38.4954 13.233 38.1354 11.5132 36.5556C1.75444 26.4969 3.19426 11.1788 14.2729 10.6189C16.9725 10.7589 18.8523 12.0987 20.4321 12.2187C22.7918 11.7388 25.0515 10.3589 27.5712 10.5389C30.5908 10.7789 32.8705 11.9787 34.3703 14.1385C28.1311 17.878 29.6109 26.097 35.3302 28.3967C34.1904 31.3963 32.7105 34.3759 30.2508 36.5756L30.2708 36.5556ZM20.2321 10.4989C19.9321 6.03949 23.5517 2.35995 27.7112 2C28.2911 7.15935 23.0318 10.9989 20.2321 10.4989Z" fill="black"/>
</svg>
