<svg width="15" height="20" viewBox="0 0 15 20" fill="none" xmlns="http://www.w3.org/2000/svg">
<path d="M4.32355 14.2547L4.28385 14.2851L4.27907 14.2789C2.60497 12.0917 1.01044 10.0086 0.952183 7.52887L0.952182 7.52883C0.909511 5.65415 1.49352 4.03514 2.64515 2.85213C3.84059 1.62402 5.56557 0.95 7.50028 0.95C9.43499 0.95 11.16 1.62402 12.3554 2.85213L12.438 2.93701H12.4356C13.5337 4.11183 14.0895 5.69874 14.0478 7.52911L14.0478 7.52915C13.9896 10.0086 12.3958 12.0908 10.7221 14.2773L10.7162 14.2851C9.60389 15.7382 8.4594 17.2341 7.77559 18.8662M4.32355 14.2547L4.28385 14.2851C5.39611 15.7379 6.54088 17.2341 7.2244 18.8662M4.32355 14.2547C5.43499 15.7064 6.58406 17.2077 7.27052 18.8469M4.32355 14.2547C2.64502 12.0618 1.06003 9.99041 1.00217 7.52769L7.27052 18.8469M7.2244 18.8662C7.27092 18.9775 7.37951 19.05 7.5 19.05C7.62049 19.05 7.72907 18.9775 7.77559 18.8662M7.2244 18.8662C7.2244 18.8662 7.22439 18.8662 7.22439 18.8662L7.27052 18.8469M7.2244 18.8662L7.27052 18.8469M7.77559 18.8662L7.72948 18.8469M7.77559 18.8662C7.7756 18.8662 7.7756 18.8662 7.77561 18.8662L7.72948 18.8469M7.72948 18.8469C7.69072 18.9397 7.60027 19 7.5 19C7.39973 19 7.30928 18.9397 7.27052 18.8469M7.72948 18.8469C8.41622 17.2077 9.56501 15.7067 10.6764 14.2547C12.355 12.0618 13.94 9.99098 13.9978 7.52797C14.0396 5.69087 13.4762 4.10425 12.3669 2.93701L7.27052 18.8469M11.9268 3.2712L11.9268 3.27121C12.9611 4.33343 13.4889 5.79987 13.4493 7.51498L13.4481 7.56613H13.4487C13.412 8.68567 13.0212 9.73808 12.438 10.7734C11.8457 11.825 11.0567 12.8557 10.2424 13.9195C9.24774 15.219 8.21994 16.5618 7.5003 18.0276C6.78247 16.5642 5.75654 15.2239 4.76359 13.9266L4.75817 13.9195C3.94398 12.8559 3.15512 11.8251 2.56279 10.7735C1.97075 9.7224 1.577 8.65365 1.55071 7.51499C1.51137 5.7996 2.03918 4.33371 3.07324 3.2712C4.15254 2.16271 5.72388 1.54987 7.5 1.54987C9.27641 1.54987 10.8477 2.16272 11.9268 3.2712ZM7.52168 3.9888L7.52132 3.98844H7.50056C6.5668 3.98844 5.67127 4.36084 5.01084 5.02347L5.01083 5.02348C4.35068 5.68612 3.97975 6.58495 3.97975 7.52234C3.97975 8.45945 4.35068 9.35827 5.01082 10.0212L5.01083 10.0212C5.67099 10.6838 6.56652 11.0562 7.50056 11.0562C8.43432 11.0562 9.32986 10.6838 9.99029 10.0212L9.99029 10.0212C10.6504 9.35855 11.0214 8.45972 11.0214 7.52234V7.52229C11.0205 6.58548 10.6493 5.68724 9.98946 5.02461L9.98945 5.02461C9.33421 4.36689 8.44763 3.99513 7.52168 3.9888ZM7.50111 4.58831H7.50112C8.27593 4.58831 9.01932 4.89763 9.56722 5.44788C10.1151 5.99811 10.4228 6.74436 10.4228 7.52226C10.4217 8.29993 10.1135 9.04539 9.56583 9.59509C9.03001 10.1329 8.30757 10.4404 7.55112 10.4544V10.4544H7.50112H7.50056C6.72574 10.4544 5.98235 10.1453 5.43445 9.59537C4.88655 9.0454 4.57859 8.29912 4.57859 7.52121C4.57859 6.74329 4.88655 5.99702 5.43473 5.44705C5.98291 4.89707 6.72602 4.58803 7.50111 4.58831Z" fill="#717171" stroke="#717171" stroke-width="0.1"/>
</svg>
