<svg width="18" height="19" viewBox="0 0 18 19" fill="none" xmlns="http://www.w3.org/2000/svg">
<path d="M9.00002 4.77124C7.46052 4.77124 6.20538 6.02768 6.20538 7.56843C6.20538 9.10934 7.46052 10.342 9.00002 10.342C10.5395 10.342 11.7947 9.08553 11.7947 7.54478C11.7947 6.00387 10.5395 4.77124 9.00002 4.77124ZM9.00002 9.86805C7.7211 9.86805 6.67895 8.82495 6.67895 7.54486C6.67895 6.26477 7.7211 5.24548 9.00002 5.24548C10.279 5.24548 11.3211 6.28858 11.3211 7.56867C11.3211 8.84861 10.279 9.86805 9.00002 9.86805Z" fill="black"/>
<path d="M9 0.0300293C4.02639 0.0300293 0 4.06001 0 9.03824C0 14.0165 4.02631 18.0465 9 18.0465C13.9737 18.0465 18 14.0165 18 9.03824C18 4.06001 13.9737 0.0300293 9 0.0300293ZM4.28705 16.1499C4.28705 13.4711 6.44223 11.1953 9 11.1953C11.5578 11.1953 13.6894 13.471 13.6894 16.1499C12.3394 17.0507 10.7289 17.5722 8.97645 17.5722C7.22379 17.5722 5.63703 17.0507 4.28705 16.1499ZM14.1632 15.8179C13.9973 13.0208 11.7 10.7215 9 10.7215C6.29996 10.7215 4.00284 13.0209 3.83678 15.8419C1.80008 14.2774 0.473731 11.8119 0.473731 9.03832C0.473731 4.32107 4.28689 0.504355 8.99992 0.504355C13.713 0.504355 17.5261 4.32099 17.5261 9.03832C17.5261 11.8119 16.1998 14.2774 14.1631 15.8179H14.1632Z" fill="black"/>
</svg>
