<svg width="18" height="18" viewBox="0 0 18 18" fill="none" xmlns="http://www.w3.org/2000/svg">
<path d="M13.6785 18C11.5781 18 8.95267 16.7791 5.84983 14.3372C2.86633 11.9912 -0.54679 8.30449 0.0737775 3.97145C0.264743 2.72655 1.07623 0.667757 2.57996 0.0692697C2.79473 -0.0264155 3.03349 -0.00253596 3.15283 0.0213437C3.67793 0.0931493 4.20307 0.50009 4.561 0.787492L4.63259 0.835418C5.1339 1.19444 5.61122 1.64932 6.04076 2.05629L6.23172 2.24783C6.54206 2.55909 6.8046 2.82242 7.04319 3.20532C7.73528 4.33047 7.23416 5.12052 6.73286 5.8626C6.54189 6.14982 6.01678 6.74832 5.75423 7.03568C5.92139 7.3947 6.47031 8.23265 6.66126 8.47213C7.04318 9.0227 7.5205 9.54937 8.02182 10.0522C8.49913 10.5071 9.07205 10.9619 9.71653 11.3689C9.97908 11.5604 10.8621 12.111 11.2203 12.2786L11.7931 11.704C11.8885 11.6084 11.9603 11.5125 12.0557 11.4168C12.4136 11.0099 12.8433 10.5071 13.4878 10.4832C14.1799 10.4593 15.0154 11.1535 15.7075 11.7281C15.8746 11.8717 16.0178 11.9914 16.137 12.0632C16.9009 12.6378 17.9271 13.4279 17.9987 14.6008C18.0225 15.1754 17.7124 15.8216 17.0917 16.468C16.1607 17.4974 15.0151 18 13.6785 18ZM2.93793 0.715678H2.89015H2.86634C1.79233 1.1465 1.00464 2.75062 0.789873 4.04326C0.216999 8.01726 3.46304 11.5124 6.27951 13.7388C11.0292 17.4733 14.4901 18.2394 16.5427 15.9891C17.0201 15.4624 17.2826 15.0075 17.2588 14.6485C17.211 13.8106 16.3518 13.1643 15.6835 12.6377C15.5641 12.542 15.4209 12.4222 15.23 12.2786C14.7526 11.8717 13.9412 11.2014 13.5115 11.2014H13.4877C13.1535 11.2253 12.8432 11.5604 12.5568 11.8717C12.4614 11.9914 12.3658 12.0871 12.2704 12.183L11.5544 12.9012C11.435 13.0209 11.1724 13.2843 9.28694 11.9437C8.61864 11.5129 7.99816 11.034 7.49684 10.5552C6.94792 10.0286 6.47061 9.47799 6.0409 8.8795C4.75211 7.06014 4.94288 6.84456 5.06227 6.70097C5.06227 6.70097 5.06227 6.67709 5.08608 6.67709C5.32482 6.43762 5.94532 5.71959 6.13631 5.45622C6.63762 4.66621 6.87617 4.25924 6.44664 3.56508C6.25568 3.25382 6.01711 3.01452 5.73056 2.75118L5.5396 2.58353C5.11006 2.17658 4.68035 1.74556 4.20303 1.41045L4.13144 1.33864C3.86888 1.12323 3.41536 0.764053 3.05742 0.71626H3.03362C2.98567 0.739805 2.96169 0.715759 2.93788 0.715759L2.93793 0.715678Z" fill="#717171"/>
</svg>
