<svg width="48" height="48" viewBox="0 0 48 48" fill="none" xmlns="http://www.w3.org/2000/svg">
<path d="M27 13.5C27 17.0804 25.5777 20.5142 23.0459 23.0459C20.5142 25.5777 17.0804 27 13.5 27C9.91958 27 6.4858 25.5777 3.95406 23.0459C1.42232 20.5142 0 17.0804 0 13.5C0 9.91958 1.42232 6.4858 3.95406 3.95406C6.4858 1.42232 9.91958 0 13.5 0C17.0804 0 20.5142 1.42232 23.0459 3.95406C25.5777 6.4858 27 9.91958 27 13.5ZM15 7.5C15 7.10218 14.842 6.72064 14.5607 6.43934C14.2794 6.15804 13.8978 6 13.5 6C13.1022 6 12.7206 6.15804 12.4393 6.43934C12.158 6.72064 12 7.10218 12 7.5V12H7.5C7.10218 12 6.72064 12.158 6.43934 12.4393C6.15804 12.7206 6 13.1022 6 13.5C6 13.8978 6.15804 14.2794 6.43934 14.5607C6.72064 14.842 7.10218 15 7.5 15H12V19.5C12 19.8978 12.158 20.2794 12.4393 20.5607C12.7206 20.842 13.1022 21 13.5 21C13.8978 21 14.2794 20.842 14.5607 20.5607C14.842 20.2794 15 19.8978 15 19.5V15H19.5C19.8978 15 20.2794 14.842 20.5607 14.5607C20.842 14.2794 21 13.8978 21 13.5C21 13.1022 20.842 12.7206 20.5607 12.4393C20.2794 12.158 19.8978 12 19.5 12H15V7.5ZM39 9H29.379C29.0855 7.96371 28.6906 6.95885 28.2 6H39C41.3869 6 43.6761 6.94821 45.364 8.63604C47.0518 10.3239 48 12.6131 48 15V39C48 41.3869 47.0518 43.6761 45.364 45.364C43.6761 47.0518 41.3869 48 39 48H15C12.6131 48 10.3239 47.0518 8.63604 45.364C6.94821 43.6761 6 41.3869 6 39V28.2C6.951 28.686 7.953 29.082 9 29.379V39C9 40.119 9.306 41.166 9.84 42.06L23.847 28.296C24.6884 27.4697 25.8207 27.0067 27 27.0067C28.1793 27.0067 29.3116 27.4697 30.153 28.296L44.163 42.06C44.7129 41.1342 45.0021 40.0768 45 39V15C45 13.4087 44.3679 11.8826 43.2426 10.7574C42.1174 9.63214 40.5913 9 39 9ZM39 19.5C39 20.0909 38.8836 20.6761 38.6575 21.2221C38.4313 21.768 38.0998 22.2641 37.682 22.682C37.2641 23.0998 36.768 23.4313 36.2221 23.6575C35.6761 23.8836 35.091 24 34.5 24C33.909 24 33.3239 23.8836 32.7779 23.6575C32.232 23.4313 31.7359 23.0998 31.318 22.682C30.9002 22.2641 30.5687 21.768 30.3425 21.2221C30.1164 20.6761 30 20.0909 30 19.5C30 18.3065 30.4741 17.1619 31.318 16.318C32.1619 15.4741 33.3065 15 34.5 15C35.6935 15 36.8381 15.4741 37.682 16.318C38.5259 17.1619 39 18.3065 39 19.5ZM36 19.5C36 19.1022 35.842 18.7206 35.5607 18.4393C35.2794 18.158 34.8978 18 34.5 18C34.1022 18 33.7206 18.158 33.4393 18.4393C33.158 18.7206 33 19.1022 33 19.5C33 19.8978 33.158 20.2794 33.4393 20.5607C33.7206 20.842 34.1022 21 34.5 21C34.8978 21 35.2794 20.842 35.5607 20.5607C35.842 20.2794 36 19.8978 36 19.5ZM11.964 44.178C12.8843 44.7185 13.9327 45.0023 15 45H39C40.11 45 41.145 44.7 42.036 44.178L28.05 30.438C27.7696 30.1632 27.3926 30.0092 27 30.0092C26.6074 30.0092 26.2304 30.1632 25.95 30.438L11.964 44.178Z" fill="black"/>
</svg>
