<svg width="40" height="40" viewBox="0 0 40 40" fill="none" xmlns="http://www.w3.org/2000/svg">
<path d="M24.9583 5.03163L26.5583 2.14497C26.5788 2.10798 26.5918 2.06732 26.5965 2.02531C26.6013 1.98331 26.5977 1.94078 26.586 1.90015C26.5743 1.85953 26.5548 1.8216 26.5284 1.78854C26.5021 1.75548 26.4695 1.72793 26.4325 1.70747C26.3955 1.687 26.3549 1.67402 26.3129 1.66927C26.2708 1.66452 26.2283 1.66809 26.1877 1.67977C26.1471 1.69146 26.1091 1.71103 26.0761 1.73737C26.043 1.76371 26.0155 1.79631 25.995 1.8333L24.3783 4.74997C22.9983 4.14488 21.5077 3.83248 20.0008 3.83248C18.4939 3.83248 17.0034 4.14488 15.6233 4.74997L14.0067 1.8333C13.9653 1.75815 13.8959 1.70251 13.8135 1.67859C13.7311 1.65468 13.6426 1.66447 13.5675 1.7058C13.4924 1.74713 13.4367 1.81662 13.4128 1.89898C13.3889 1.98134 13.3987 2.06982 13.44 2.14497L15.04 5.03163C13.5177 5.78245 12.2314 6.93797 11.3224 8.37148C10.4134 9.80499 9.91665 11.4611 9.88667 13.1583H30.115C30.0847 11.4608 29.5875 9.8044 28.6778 8.37085C27.7682 6.93731 26.4813 5.78199 24.9583 5.03163ZM15.3333 9.45663C15.1661 9.45663 15.0027 9.40703 14.8637 9.31411C14.7247 9.22118 14.6164 9.08911 14.5525 8.93461C14.4886 8.78011 14.472 8.61013 14.5047 8.44617C14.5374 8.28221 14.6181 8.13165 14.7364 8.01354C14.8548 7.89543 15.0055 7.81508 15.1695 7.78267C15.3335 7.75025 15.5035 7.76722 15.6579 7.83143C15.8122 7.89565 15.9441 8.00421 16.0367 8.14339C16.1294 8.28257 16.1787 8.4461 16.1783 8.6133C16.1779 8.83712 16.0887 9.05162 15.9303 9.20973C15.7718 9.36784 15.5572 9.45663 15.3333 9.45663ZM24.67 9.45663C24.5028 9.45663 24.3394 9.40703 24.2004 9.31411C24.0614 9.22118 23.9531 9.08911 23.8892 8.93461C23.8253 8.78011 23.8086 8.61013 23.8414 8.44617C23.8741 8.28221 23.9547 8.13165 24.0731 8.01354C24.1914 7.89543 24.3422 7.81508 24.5062 7.78267C24.6702 7.75025 24.8402 7.76722 24.9945 7.83143C25.1489 7.89565 25.2808 8.00421 25.3734 8.14339C25.4661 8.28257 25.5153 8.4461 25.515 8.6133C25.5146 8.83712 25.4253 9.05162 25.2669 9.20973C25.1085 9.36784 24.8938 9.45663 24.67 9.45663ZM9.88334 28.6183C9.8829 28.9401 9.94598 29.2588 10.069 29.5561C10.192 29.8535 10.3724 30.1236 10.6 30.3511C10.8277 30.5786 11.0979 30.7589 11.3954 30.8816C11.6928 31.0044 12.0116 31.0673 12.3333 31.0666H13.955V36.0666C13.955 36.668 14.1939 37.2448 14.6191 37.67C15.0444 38.0952 15.6211 38.3341 16.2225 38.3341C16.8239 38.3341 17.4006 38.0952 17.8259 37.67C18.2511 37.2448 18.49 36.668 18.49 36.0666V31.0666H21.5133V36.0666C21.5133 36.6678 21.7521 37.2443 22.1772 37.6694C22.6023 38.0945 23.1788 38.3333 23.78 38.3333C24.3812 38.3333 24.9577 38.0945 25.3828 37.6694C25.8079 37.2443 26.0467 36.6678 26.0467 36.0666V31.0666H27.67C27.9914 31.0669 28.3096 31.0037 28.6066 30.8808C28.9035 30.758 29.1733 30.5777 29.4005 30.3505C29.6278 30.1233 29.808 29.8535 29.9309 29.5565C30.0538 29.2596 30.1169 28.9413 30.1167 28.62V13.9583H9.88334V28.6183ZM6.77167 13.5683C6.1705 13.5692 5.59422 13.8085 5.16928 14.2338C4.74434 14.659 4.50545 15.2355 4.505 15.8366V25.285C4.505 25.5826 4.56363 25.8774 4.67754 26.1524C4.79146 26.4274 4.95842 26.6773 5.1689 26.8877C5.37938 27.0982 5.62925 27.2652 5.90426 27.3791C6.17926 27.493 6.47401 27.5516 6.77167 27.5516C7.06933 27.5516 7.36408 27.493 7.63909 27.3791C7.91409 27.2652 8.16397 27.0982 8.37445 26.8877C8.58493 26.6773 8.75189 26.4274 8.8658 26.1524C8.97971 25.8774 9.03834 25.5826 9.03834 25.285V15.8366C9.03746 15.2357 8.79836 14.6597 8.37347 14.2348C7.94858 13.8099 7.37256 13.5708 6.77167 13.57V13.5683ZM33.225 13.5683C32.6238 13.5692 32.0476 13.8085 31.6226 14.2338C31.1977 14.659 30.9588 15.2355 30.9583 15.8366V25.285C30.9583 25.5826 31.017 25.8774 31.1309 26.1524C31.2448 26.4274 31.4118 26.6773 31.6222 26.8877C31.8327 27.0982 32.0826 27.2652 32.3576 27.3791C32.6326 27.493 32.9273 27.5516 33.225 27.5516C33.5227 27.5516 33.8174 27.493 34.0924 27.3791C34.3674 27.2652 34.6173 27.0982 34.8278 26.8877C35.0383 26.6773 35.2052 26.4274 35.3191 26.1524C35.433 25.8774 35.4917 25.5826 35.4917 25.285V15.8366C35.4908 15.2357 35.2517 14.6597 34.8268 14.2348C34.4019 13.8099 33.8259 13.5708 33.225 13.57V13.5683Z" fill="black"/>
</svg>
