<svg width="20" height="18" viewBox="0 0 20 18" fill="none" xmlns="http://www.w3.org/2000/svg">
<g clip-path="url(#clip0_3_267)">
<path d="M0.00313029 0L2.0202 0.0161439C2.06997 0.0134532 3.32768 -0.0469828 3.53973 0.535852C3.70654 0.994711 5.49571 9.30715 5.50086 9.33116V9.33199C5.50209 9.33757 5.90727 11.3158 7.68 11.375C9.62014 11.4398 16.2363 11.3752 16.2553 11.375H16.2561C16.2602 11.375 17.7026 11.3849 18.1421 9.75297C18.2945 9.18731 18.4936 8.33603 18.695 7.43405C19.0165 5.99496 19.3482 4.4081 19.5056 3.64872C19.5944 3.30784 19.4564 3.36269 19.252 3.35151C19.2059 3.34882 19.1635 3.34654 19.1251 3.34489C19.0461 3.34137 18.9634 3.33826 18.877 3.33578C18.7871 3.3333 18.6925 3.33102 18.5934 3.32957C17.2096 3.30804 8.11768 3.32957 8.09155 3.32957V2.89927C8.11768 2.89927 17.2139 2.87775 18.5983 2.89927C18.7075 2.90093 18.804 2.903 18.8887 2.90548C18.9875 2.90817 19.0718 2.91128 19.1436 2.91459C19.1975 2.91707 19.2411 2.91914 19.2754 2.92121C19.3285 2.92432 19.3682 2.9268 19.3959 2.92887C20.2049 2.94439 19.9899 3.11432 19.9247 3.73648C19.7684 4.49151 19.4375 6.07299 19.1125 7.52842C18.9077 8.44573 18.7067 9.3057 18.5562 9.86432C18.0348 11.8001 16.2935 11.8053 16.2585 11.8053C16.2394 11.8055 9.61047 11.8701 7.66642 11.8053C5.56852 11.7354 5.08909 9.45782 5.08169 9.42222H5.08148C5.07634 9.39842 3.2921 1.10917 3.13702 0.682596C3.0311 0.390971 2.04282 0.446233 2.04015 0.44644L-0.000366211 0.430296L0.00292461 0L0.00313029 0Z" fill="black"/>
<path d="M7.6841 13.7026C8.27377 13.7026 8.8075 13.9431 9.19397 14.332C9.58043 14.7209 9.81943 15.258 9.81943 15.8514C9.81943 16.4448 9.58043 16.9819 9.19397 17.3708C8.8075 17.7597 8.27377 18.0002 7.6841 18.0002C7.09442 18.0002 6.56069 17.7597 6.17423 17.3708C5.78776 16.9819 5.54877 16.4448 5.54877 15.8514C5.54877 15.258 5.78776 14.7209 6.17423 14.332C6.56069 13.9431 7.09442 13.7026 7.6841 13.7026ZM8.89039 14.6373C8.58167 14.3267 8.1551 14.1346 7.6841 14.1346C7.21289 14.1346 6.78653 14.3267 6.47781 14.6373C6.16909 14.948 5.97822 15.3773 5.97822 15.8512C5.97822 16.3254 6.16909 16.7544 6.47781 17.0651C6.78653 17.3758 7.2131 17.5679 7.6841 17.5679C8.1553 17.5679 8.58167 17.3758 8.89039 17.0651C9.19911 16.7544 9.38998 16.3252 9.38998 15.8512C9.38998 15.377 9.19911 14.948 8.89039 14.6373Z" fill="black"/>
<path d="M15.4846 13.7026C16.0742 13.7026 16.608 13.9431 16.9944 14.332C17.3809 14.7209 17.6199 15.258 17.6199 15.8514C17.6199 16.4448 17.3809 16.9819 16.9944 17.3708C16.608 17.7597 16.0742 18.0002 15.4846 18.0002C14.8949 18.0002 14.3612 17.7597 13.9747 17.3708C13.5882 16.9819 13.3492 16.4448 13.3492 15.8514C13.3492 15.258 13.5882 14.7209 13.9747 14.332C14.3612 13.9431 14.8949 13.7026 15.4846 13.7026ZM16.6909 14.6373C16.3821 14.3267 15.9556 14.1346 15.4846 14.1346C15.0134 14.1346 14.587 14.3267 14.2783 14.6373C13.9696 14.948 13.7787 15.3773 13.7787 15.8512C13.7787 16.3254 13.9696 16.7544 14.2783 17.0651C14.587 17.3758 15.0136 17.5679 15.4846 17.5679C15.9558 17.5679 16.3821 17.3758 16.6909 17.0651C16.9996 16.7544 17.1905 16.3252 17.1905 15.8512C17.1905 15.377 16.9996 14.948 16.6909 14.6373Z" fill="black"/>
</g>
<defs>
<clipPath id="clip0_3_267">
<rect width="20" height="18" fill="white"/>
</clipPath>
</defs>
</svg>
