<svg xmlns="http://www.w3.org/2000/svg" width="40" height="40" viewBox="0 0 40 40" fill="none">
  <g clip-path="url(#clip0_1_227)">
    <path d="M13.9992 37.4445C15.5333 37.4445 16.777 36.2008 16.777 34.6667C16.777 33.1326 15.5333 31.8889 13.9992 31.8889C12.4651 31.8889 11.2214 33.1326 11.2214 34.6667C11.2214 36.2008 12.4651 37.4445 13.9992 37.4445Z" fill="#801317"/>
    <path d="M28.4437 37.4445C29.9778 37.4445 31.2214 36.2008 31.2214 34.6667C31.2214 33.1326 29.9778 31.8889 28.4437 31.8889C26.9095 31.8889 25.6659 33.1326 25.6659 34.6667C25.6659 36.2008 26.9095 37.4445 28.4437 37.4445Z" fill="#801317"/>
    <path d="M32.3326 16.8888C30.1224 16.8888 28.0028 16.0109 26.44 14.4481C24.8772 12.8853 23.9992 10.7656 23.9992 8.5555H9.23256L8.73256 6.96661C8.67764 6.79601 8.58226 6.64123 8.45456 6.51547C8.32687 6.38971 8.17065 6.29671 7.99923 6.24439L3.44367 4.84439C3.3036 4.80135 3.15641 4.78631 3.01053 4.80015C2.86464 4.81399 2.72291 4.85643 2.59342 4.92504C2.33191 5.06361 2.13616 5.30038 2.04923 5.58328C1.9623 5.86618 1.9913 6.17202 2.12987 6.43353C2.26844 6.69504 2.50522 6.89079 2.78812 6.97773L6.77701 8.19995L11.8659 24.2777L10.0548 25.7666L9.91034 25.9111C9.46245 26.4297 9.20869 27.0878 9.19248 27.7729C9.17626 28.458 9.3986 29.1274 9.82145 29.6666C10.1243 30.0349 10.5091 30.3272 10.9452 30.5201C11.3812 30.7131 11.8563 30.8013 12.3326 30.7777H30.877C31.1717 30.7777 31.4543 30.6607 31.6627 30.4523C31.8711 30.2439 31.9881 29.9613 31.9881 29.6666C31.9881 29.3719 31.8711 29.0893 31.6627 28.8809C31.4543 28.6726 31.1717 28.5555 30.877 28.5555H12.1548C12.0268 28.5511 11.9022 28.5138 11.7928 28.4472C11.6835 28.3806 11.5932 28.2869 11.5307 28.1752C11.4681 28.0635 11.4354 27.9376 11.4358 27.8096C11.4361 27.6815 11.4694 27.5558 11.5326 27.4444L14.2103 25.2222H31.3548C31.6086 25.2296 31.8573 25.1498 32.0595 24.9962C32.2616 24.8425 32.4051 24.6243 32.4659 24.3777L34.3659 16.5999C33.7026 16.7798 33.0197 16.8769 32.3326 16.8888Z" fill="#801317"/>
    <path d="M32.3325 14.1111C35.4008 14.1111 37.8881 11.6238 37.8881 8.55556C37.8881 5.48731 35.4008 3 32.3325 3C29.2643 3 26.777 5.48731 26.777 8.55556C26.777 11.6238 29.2643 14.1111 32.3325 14.1111Z" fill="#801317"/>
  </g>
  <defs>
    <clipPath id="clip0_1_227">
      <rect width="40" height="40" fill="white"/>
    </clipPath>
  </defs>
</svg>