<svg width="18" height="18" viewBox="0 0 18 18" fill="none" xmlns="http://www.w3.org/2000/svg">
<path d="M16.6545 12.1948C16.5351 11.7731 16.2172 11.4363 15.8029 11.292C13.6519 10.5472 11.3121 10.5472 9.1612 11.292C8.74877 11.4349 8.43201 11.7693 8.3118 12.1882L6.97738 16.3904C6.97401 16.4129 6.97401 16.4358 6.97738 16.4583C6.97738 16.9884 7.59193 17.3937 8.80568 17.6633H8.80552C10.0199 17.9013 11.2556 18.0136 12.4929 17.9986C13.3732 17.996 14.2526 17.9419 15.1267 17.8365H15.1486C15.1751 17.8369 15.2012 17.8316 15.2254 17.821C16.6016 17.637 17.9976 17.2536 17.9976 16.4583C18.0008 16.4358 18.0008 16.4129 17.9976 16.3904L16.6545 12.1948ZM15.4057 17.361L15.8446 15.1701C15.8682 15.0491 15.7892 14.9318 15.6679 14.9083C15.5467 14.8846 15.4292 14.9636 15.4057 15.0847L14.9447 17.4135C14.1274 17.5088 13.305 17.5549 12.4821 17.5515C11.6591 17.5549 10.8368 17.5088 10.0195 17.4135L9.56077 15.0933C9.53719 14.9723 9.41976 14.8935 9.29851 14.917C9.17725 14.9405 9.0981 15.0577 9.12183 15.1788L9.56076 17.3697C8.22634 17.1615 7.44937 16.822 7.40755 16.4934L8.72453 12.3307V12.3305C8.80383 12.0461 9.01787 11.8184 9.29742 11.7215C11.3546 11.0095 13.5918 11.0095 15.6491 11.7215C15.9334 11.8123 16.1549 12.0367 16.2418 12.3219L17.5587 16.4846C17.5148 16.8133 16.7378 17.1529 15.4055 17.361L15.4057 17.361Z" fill="#717171"/>
<path d="M12.482 4.01367C11.6331 4.01306 10.8187 4.34927 10.2181 4.94821C9.61752 5.54714 9.2799 6.35985 9.27979 7.20726C9.27963 8.05467 9.61676 8.86757 10.2171 9.46678C10.8173 10.066 11.6316 10.4025 12.4806 10.4024C13.3296 10.4021 14.1436 10.0652 14.7437 9.46572C15.3438 8.8662 15.6806 8.0533 15.68 7.20589C15.6787 6.35954 15.3415 5.54836 14.7421 4.94989C14.1425 4.35158 13.3299 4.01492 12.482 4.01367ZM12.482 9.96196C11.7496 9.96257 11.047 9.67266 10.5288 9.15594C10.0105 8.6394 9.71918 7.93839 9.71871 7.20726C9.71841 6.47612 10.009 5.77484 10.5266 5.25767C11.0444 4.7405 11.7467 4.44986 12.4791 4.4497C13.2115 4.44955 13.9139 4.73976 14.432 5.25662C14.9499 5.77363 15.241 6.47479 15.241 7.20589C15.2404 7.93624 14.9495 8.63662 14.4323 9.15332C13.9152 9.67002 13.2138 9.96086 12.482 9.96192L12.482 9.96196Z" fill="#717171"/>
<path d="M0 4.23289C0.00229646 5.57517 0.641636 6.83689 1.72345 7.63418C2.80512 8.43147 4.20138 8.67004 5.48709 8.27729L8.19112 9.20189C8.21439 9.20509 8.23812 9.20509 8.2614 9.20189C8.31789 9.20158 8.37224 9.17957 8.41281 9.14045C8.47191 9.08421 8.49472 8.9997 8.47206 8.92145L7.76764 6.58368C8.23506 5.88878 8.48355 5.06997 8.48092 4.23293C8.48092 2.72059 7.67271 1.3233 6.36063 0.567129C5.04871 -0.189043 3.43229 -0.189043 2.12029 0.567129C0.808209 1.3233 0 2.72059 0 4.23293V4.23289ZM4.24073 0.438258C5.24859 0.439327 6.21479 0.839583 6.92749 1.55096C7.64002 2.26222 8.04097 3.22684 8.04219 4.23289C8.04571 5.01778 7.80243 5.7842 7.34635 6.42379C7.30715 6.47911 7.29582 6.54941 7.31557 6.61436L7.92797 8.64309L5.56856 7.83907C5.54575 7.83204 5.52218 7.82838 5.49829 7.82807C5.47517 7.82838 5.45221 7.83204 5.43031 7.83907C4.37315 8.18446 3.21757 8.05058 2.26803 7.47245C1.31837 6.89448 0.66999 5.93013 0.493737 4.83394C0.317672 3.73771 0.631221 2.61937 1.352 1.77377C2.07277 0.928158 3.1284 0.440057 4.24067 0.438219L4.24073 0.438258Z" fill="#717171"/>
<path d="M3.64107 6.49619C3.84883 6.74881 4.09195 6.97025 4.36309 7.15335C4.58891 7.30342 4.84674 7.39863 5.11604 7.43164H5.22796C5.32288 7.42507 5.41703 7.40887 5.5089 7.3835C5.79963 7.29333 6.06877 7.14418 6.29904 6.94536C6.36869 6.88362 6.42611 6.80934 6.46806 6.72621C6.54614 6.58179 6.5368 6.40589 6.44387 6.2705L6.36487 6.14564C6.17395 5.86521 5.98304 5.58477 5.78767 5.30649H5.78751C5.70698 5.18683 5.5816 5.10445 5.43952 5.07817C5.2976 5.05173 5.15093 5.08352 5.03257 5.16635C4.91851 5.24078 4.80216 5.3175 4.6858 5.3855C4.66161 5.40308 4.64845 5.40308 4.63972 5.3855V5.38535C4.57955 5.32758 4.52857 5.2611 4.4883 5.1882C4.24472 4.72804 4.00755 4.26592 3.77271 3.8036C3.71024 3.68898 3.6588 3.56855 3.61899 3.44431C3.60108 3.4006 3.59419 3.35322 3.59924 3.30615C3.59924 3.30615 3.61685 3.27987 3.73305 3.23601L3.82522 3.20315C3.91739 3.16815 4.01614 3.133 4.11274 3.087L4.11289 3.08715C4.36612 2.96642 4.48584 2.67315 4.38939 2.41013C4.37408 2.36627 4.35648 2.32026 4.33672 2.27656L3.9921 1.40028L3.99225 1.40012C3.91784 1.14399 3.64992 0.996058 3.39302 1.06926C3.29978 1.08622 3.209 1.11495 3.12311 1.15469C2.96939 1.2314 2.80925 1.31683 2.63577 1.41541C2.24996 1.6234 2.00041 2.01693 1.97729 2.45401C1.94789 2.85091 1.99244 3.24978 2.10895 3.63044C2.41423 4.68172 2.93601 5.65781 3.64102 6.49622L3.64107 6.49619ZM2.41412 2.47785C2.42667 2.18458 2.5937 1.91957 2.85305 1.78127C3.01993 1.68484 3.17134 1.60597 3.31616 1.53369C3.36729 1.51061 3.42103 1.49442 3.47645 1.4854C3.49681 1.4831 3.51748 1.4831 3.53784 1.4854H3.54887C3.56418 1.50511 3.57612 1.52742 3.58393 1.55111L3.9307 2.42739L3.97678 2.54782C4.0097 2.63768 3.97678 2.67482 3.92197 2.70126C3.86717 2.72754 3.76612 2.76697 3.68053 2.79983L3.58393 2.83482C3.20639 2.97511 3.09448 3.19625 3.2021 3.57542V3.57558C3.24941 3.72672 3.31034 3.87343 3.38429 4.01372C3.62129 4.48046 3.85845 4.94489 4.10415 5.40717C4.16631 5.51949 4.2447 5.62204 4.33671 5.71159C4.49058 5.87725 4.74519 5.89896 4.92493 5.76203C5.04343 5.6876 5.16193 5.61455 5.28042 5.54287H5.28058C5.304 5.52469 5.33401 5.5172 5.36325 5.52224C5.39249 5.52713 5.41821 5.54425 5.43414 5.56931C5.62735 5.84761 5.81597 6.12576 6.00476 6.4062L6.09248 6.52662H6.09263C6.07717 6.55902 6.05635 6.58867 6.03124 6.61434C5.84523 6.77282 5.62861 6.89141 5.39466 6.96263C5.32929 6.97974 5.26238 6.99075 5.19502 6.99549H5.15322C4.95833 6.96645 4.77323 6.89126 4.61341 6.77649C4.37718 6.62015 4.16559 6.42973 3.98569 6.21119C3.31434 5.42079 2.81584 4.49909 2.52162 3.50544C2.42287 3.17243 2.38641 2.82417 2.41412 2.47785Z" fill="#717171"/>
</svg>
