<svg width="18" height="18" viewBox="0 0 18 18" fill="none" xmlns="http://www.w3.org/2000/svg">
<path d="M15.7892 5.65613e-05H8.05458C6.83332 5.65613e-05 5.81555 0.987102 5.81555 2.23559V5.80651H6.39705L6.39726 2.23559C6.39726 1.33564 7.1242 0.58065 8.05479 0.58065H15.8185C16.7199 0.58065 17.4761 1.30646 17.4761 2.23559V8.04205C17.4761 8.942 16.7491 9.69699 15.8185 9.69699C15.6441 9.69699 15.5277 9.81303 15.5277 9.9874V11.3809L13.0852 9.75514C13.027 9.72618 12.969 9.69702 12.9398 9.69702H12.2128V10.2776H12.7943L15.6149 12.1646C15.6731 12.1936 15.7311 12.2227 15.7603 12.2227C15.8185 12.2227 15.8475 12.2227 15.9057 12.1938C15.9929 12.1356 16.0511 12.0486 16.0511 11.9325V10.2776C17.1561 10.1324 17.9993 9.1743 17.9993 8.07118V2.26473C18.0284 0.987253 17.0396 0 15.7893 0L15.7892 5.65613e-05Z" fill="#717171"/>
<path d="M12.2127 8.04193C12.2127 6.82258 11.2241 5.8064 9.97369 5.8064H2.23903C1.01777 5.8064 0 6.79344 0 8.04193V13.8484C0 14.9517 0.843149 15.9098 1.9482 16.0548L1.94841 17.7097C1.94841 17.8258 2.00662 17.9131 2.09384 17.971C2.12284 17.9999 2.18105 17.9999 2.23927 17.9999C2.29748 17.9999 2.35549 17.971 2.4137 17.9418L5.23423 16.0548H9.97395C11.1952 16.0548 12.213 15.0678 12.213 13.8193L12.2128 10.2484L12.2127 8.04193ZM11.631 13.8484C11.631 14.7483 10.9041 15.5033 9.97348 15.5033H5.11772C5.05951 15.5033 5.0015 15.5323 4.97229 15.5615L2.52982 17.1872V15.7937C2.52982 15.6195 2.4136 15.5033 2.23896 15.5033C1.3376 15.5033 0.581429 14.7775 0.581429 13.8484V8.04191C0.581429 7.14196 1.30837 6.38696 2.23896 6.38696L5.81546 6.38717H9.97346C10.8748 6.38717 11.631 7.11297 11.631 8.04211L11.631 13.8484Z" fill="#717171"/>
<path d="M6.10654 12.4841C5.9321 12.4841 5.81568 12.3681 5.81568 12.1937V11.2356C5.81568 11.0615 5.9319 10.9452 6.10654 10.9452C6.74625 10.9452 7.26954 10.4227 7.26954 9.78403C7.26954 9.14532 6.74625 8.62284 6.10654 8.62284C5.46683 8.62284 4.94354 9.14532 4.94354 9.78403C4.94354 9.95819 4.82731 10.0744 4.65268 10.0744C4.47824 10.0744 4.36182 9.9584 4.36182 9.78403C4.36182 8.82597 5.14696 8.04199 6.10658 8.04199C7.06619 8.04199 7.85134 8.82591 7.85134 9.78403C7.85134 10.6259 7.24061 11.3517 6.39746 11.4969V12.1939C6.39746 12.3681 6.28103 12.4841 6.1066 12.4841L6.10654 12.4841Z" fill="#717171"/>
<path d="M6.1066 14.0225C5.84495 14.0225 5.6123 13.8192 5.6123 13.529C5.6123 13.2388 5.84495 13.0645 6.1066 13.0645C6.36825 13.0645 6.60089 13.2678 6.60089 13.558C6.60089 13.8194 6.36825 14.0225 6.1066 14.0225ZM6.1066 13.4419C6.04839 13.4419 6.01938 13.4709 6.01938 13.529C6.01938 13.5871 6.04839 13.6161 6.1066 13.6161C6.16481 13.6161 6.19382 13.5871 6.19382 13.529C6.19382 13.5001 6.16481 13.4419 6.1066 13.4419Z" fill="#717171"/>
</svg>
