<svg xmlns="http://www.w3.org/2000/svg" width="40" height="40" viewBox="0 0 40 40" fill="none">
  <path d="M20 19.9999C20.9166 19.9999 21.7016 19.6733 22.355 19.0199C23.0072 18.3677 23.3333 17.5833 23.3333 16.6666C23.3333 15.7499 23.0072 14.9649 22.355 14.3116C21.7016 13.6594 20.9166 13.3333 20 13.3333C19.0833 13.3333 18.2988 13.6594 17.6466 14.3116C16.9933 14.9649 16.6666 15.7499 16.6666 16.6666C16.6666 17.5833 16.9933 18.3677 17.6466 19.0199C18.2988 19.6733 19.0833 19.9999 20 19.9999ZM20 36.6666C15.5277 32.861 12.1877 29.326 9.97996 26.0616C7.77107 22.7983 6.66663 19.7777 6.66663 16.9999C6.66663 12.8333 8.00718 9.51381 10.6883 7.04158C13.3683 4.56936 16.4722 3.33325 20 3.33325C23.5277 3.33325 26.6316 4.56936 29.3116 7.04158C31.9927 9.51381 33.3333 12.8333 33.3333 16.9999C33.3333 19.7777 32.2294 22.7983 30.0216 26.0616C27.8127 29.326 24.4722 32.861 20 36.6666Z" fill="#801317"/>
</svg>