<svg width="20" height="15" viewBox="0 0 20 15" fill="none" xmlns="http://www.w3.org/2000/svg">
<path d="M18.1163 0.00013963H1.88367C1.3842 0.00069815 0.905519 0.195341 0.552373 0.541359C0.199239 0.887362 0.000583712 1.35639 0 1.84577V13.1545V13.1544C0.000570031 13.6438 0.199224 14.1128 0.552373 14.4588C0.905508 14.8048 1.3842 14.9994 1.88367 15H18.1163C18.6158 14.9994 19.0945 14.8048 19.4476 14.4588C19.8008 14.1128 19.9994 13.6438 20 13.1544V1.84564C19.9994 1.35625 19.8008 0.887233 19.4476 0.541219C19.0945 0.195216 18.6158 0.000571924 18.1163 0V0.00013963ZM19.2236 13.8514L13.0753 7.82692L19.433 3.19791V13.1544C19.4333 13.4017 19.3606 13.6437 19.2235 13.8513L19.2236 13.8514ZM1.88375 0.555621H18.1164C18.4655 0.5559 18.8001 0.692039 19.0471 0.933877C19.2939 1.17572 19.4327 1.50369 19.4332 1.84581V2.50628L10 9.37366L0.566893 2.50628V1.84581C0.567321 1.50372 0.706123 1.17573 0.952946 0.933877C1.19991 0.692039 1.5345 0.555907 1.88367 0.555621H1.88375ZM0.776446 13.8514C0.639354 13.6438 0.566674 13.4018 0.566959 13.1545V3.19805L6.92467 7.82707L0.776446 13.8514ZM1.88375 14.4447C1.63364 14.4449 1.38883 14.3749 1.17819 14.243L7.3845 8.16198L9.83065 9.94295H9.83079C9.93112 10.016 10.0685 10.016 10.1688 9.94295L12.6151 8.16198L18.8214 14.243C18.6108 14.3748 18.366 14.4447 18.1159 14.4446L1.88375 14.4447Z" fill="#717171"/>
</svg>
