<svg width="18" height="17" viewBox="0 0 18 17" fill="none" xmlns="http://www.w3.org/2000/svg">
<path d="M8.43305 16.9996C8.38599 16.9996 8.34007 16.987 8.29899 16.9618C8.22839 16.9171 8.18604 16.8416 8.18604 16.7591V7.51144C8.18604 7.41758 8.24251 7.33165 8.33079 7.29264L16.5167 3.65778C16.5931 3.62349 16.6825 3.63029 16.7531 3.67376C16.8237 3.71846 16.8661 3.79399 16.8661 3.87645V8.25813C16.8661 8.39099 16.7555 8.49859 16.6191 8.49859C16.4826 8.49859 16.3721 8.39099 16.3721 8.25813V4.24986L8.68014 7.66632V16.385L10.9048 15.3966C11.0295 15.3416 11.1754 15.3944 11.2318 15.5157C11.2883 15.6371 11.2341 15.7791 11.1095 15.8341L8.53537 16.9771C8.50256 16.992 8.46719 16.9999 8.43311 16.9999L8.43305 16.9996Z" fill="#717171"/>
<path d="M3.19194 13.4642C3.1567 13.4642 3.12249 13.4574 3.08954 13.4424L1.20017 12.6042C1.1119 12.5653 1.05542 12.4794 1.05542 12.3854V10.7087C1.05542 10.6273 1.09778 10.5507 1.16837 10.506C1.23897 10.4613 1.32839 10.4556 1.40483 10.49L3.29421 11.3295C3.38248 11.3684 3.43896 11.4543 3.43896 11.5483V13.225C3.43896 13.3063 3.3966 13.383 3.326 13.4277C3.28479 13.4516 3.23773 13.4642 3.19194 13.4642ZM1.54955 12.2307L2.94479 12.8503V11.7027L1.54955 11.0831V12.2307Z" fill="#717171"/>
<path d="M8.43319 16.9996C8.39796 16.9996 8.36374 16.9928 8.3308 16.9778L0.145238 13.343C0.0569646 13.3041 0.000488281 13.2181 0.000488281 13.1242V3.87519C0.000488281 3.79383 0.0428454 3.71719 0.113441 3.67249C0.184036 3.62779 0.273456 3.6221 0.3499 3.65652L8.53578 7.29138C8.62406 7.33026 8.68053 7.41619 8.68053 7.51017V16.7579C8.68053 16.8392 8.63818 16.9159 8.56758 16.9606C8.52637 16.9869 8.47931 16.9995 8.43339 16.9995L8.43319 16.9996ZM0.494455 12.9695L8.18604 16.3856L8.18617 7.66568L0.494582 4.24954L0.494455 12.9695Z" fill="#717171"/>
<path d="M5.0449 8.37617C5.01081 8.37617 4.97545 8.36936 4.94251 8.35437L3.12956 7.54929C3.00491 7.49432 2.95072 7.35118 3.0072 7.23095C3.06368 7.1096 3.21071 7.05685 3.33422 7.11183L5.14717 7.91691C5.27183 7.97189 5.32601 8.11502 5.26954 8.23526C5.22845 8.32354 5.13903 8.37617 5.0449 8.37617Z" fill="#717171"/>
<path d="M16.6174 4.11589C16.5833 4.11589 16.548 4.10908 16.515 4.09409L8.43267 0.504879L0.349361 4.09409C0.224709 4.14907 0.0788124 4.09632 0.022336 3.97498C-0.0341404 3.85363 0.0200463 3.71161 0.144699 3.65663L8.33026 0.0214521C8.395 -0.00715069 8.4703 -0.00715069 8.53492 0.0214521L16.7208 3.65631C16.8455 3.71129 16.8996 3.85443 16.8432 3.97466C16.8008 4.06406 16.7114 4.11569 16.6173 4.11569L16.6174 4.11589Z" fill="#717171"/>
<path d="M3.23196 5.44228C3.13783 5.44228 3.04841 5.38965 3.0072 5.30137C2.95072 5.18002 3.00491 5.038 3.12956 4.98302L11.3154 1.34816C11.4401 1.29318 11.586 1.34593 11.6425 1.46728C11.6989 1.58862 11.6448 1.73065 11.5201 1.78562L3.33455 5.42049C3.30161 5.43547 3.26624 5.44228 3.23216 5.44228H3.23196Z" fill="#717171"/>
<path d="M5.04511 6.24687C4.90863 6.24687 4.7981 6.13927 4.7981 6.00641C4.7981 5.90673 4.86042 5.82092 4.9487 5.78427L13.1274 2.15163C13.2521 2.09665 13.398 2.1494 13.4544 2.27074C13.5109 2.39209 13.4567 2.53411 13.3321 2.58909L5.1475 6.22522C5.11583 6.23896 5.08046 6.24701 5.04523 6.24701L5.04511 6.24687Z" fill="#717171"/>
<path d="M5.04499 8.37603C4.90851 8.37603 4.79798 8.26843 4.79798 8.13557L4.79785 6.00657C4.79785 5.87371 4.90838 5.76611 5.04487 5.76611C5.18135 5.76611 5.29188 5.87371 5.29188 6.00657V8.13557C5.29201 8.26843 5.18148 8.37603 5.04499 8.37603Z" fill="#717171"/>
<path d="M3.23188 7.57134C3.0954 7.57134 2.98486 7.46374 2.98486 7.33088V5.20189C2.98486 5.06903 3.0954 4.96143 3.23188 4.96143C3.36836 4.96143 3.4789 5.06903 3.4789 5.20189V7.33088C3.4789 7.46374 3.36836 7.57134 3.23188 7.57134Z" fill="#717171"/>
<path d="M17.3539 16.2964H11.4057C11.0493 16.2964 10.7598 16.0147 10.7598 15.6676L10.7599 8.64513C10.7599 8.29819 11.0493 8.01636 11.4058 8.01636H12.7822C12.9187 8.01636 13.0292 8.12396 13.0292 8.25682C13.0292 8.38968 12.9187 8.49728 12.7822 8.49728H11.4058C11.3222 8.49728 11.2541 8.56365 11.2541 8.645V15.6675C11.2541 15.7488 11.3222 15.8152 11.4058 15.8152H17.354C17.4376 15.8152 17.5057 15.7488 17.5057 15.6675V8.645C17.5057 8.56365 17.4376 8.49728 17.354 8.49728H15.9776C15.8411 8.49728 15.7306 8.38968 15.7306 8.25682C15.7306 8.12396 15.8411 8.01636 15.9776 8.01636H17.354C17.7104 8.01636 17.9999 8.29805 17.9999 8.64513V15.6676C17.9998 16.0144 17.7104 16.2961 17.3539 16.2961L17.3539 16.2964Z" fill="#717171"/>
<path d="M15.1495 8.03709C15.013 8.03709 14.9025 7.92949 14.9025 7.79663V7.38097C14.9025 7.37069 14.8942 7.36264 14.8837 7.36264H13.8766C13.8661 7.36264 13.8578 7.37069 13.8578 7.38097V7.79663C13.8578 7.92949 13.7473 8.03709 13.6108 8.03709C13.4743 8.03709 13.3638 7.92949 13.3638 7.79663V7.38097C13.3638 7.10608 13.5944 6.88159 13.8768 6.88159H14.8838C15.1662 6.88159 15.3968 7.10608 15.3968 7.38097V7.79663C15.3965 7.92949 15.286 8.03709 15.1495 8.03709Z" fill="#717171"/>
<path d="M15.5071 9.12276H13.253C12.8577 9.12276 12.5354 8.809 12.5354 8.42416V8.25353C12.5354 7.86868 12.8577 7.55493 13.253 7.55493H15.5071C15.9025 7.55493 16.2248 7.8687 16.2248 8.25353V8.42416C16.2248 8.80901 15.9024 9.12276 15.5071 9.12276ZM13.253 8.03709C13.1295 8.03709 13.0296 8.13441 13.0296 8.25465V8.42527C13.0296 8.5455 13.1295 8.64283 13.253 8.64283H15.5071C15.6306 8.64283 15.7306 8.5455 15.7306 8.42527V8.25465C15.7306 8.13441 15.6306 8.03709 15.5071 8.03709H13.253Z" fill="#717171"/>
<path d="M16.5034 11.0857H13.6352C13.4987 11.0857 13.3882 10.9781 13.3882 10.8452C13.3882 10.7123 13.4987 10.6047 13.6352 10.6047H16.5034C16.6399 10.6047 16.7504 10.7123 16.7504 10.8452C16.7505 10.9781 16.6399 11.0857 16.5034 11.0857Z" fill="#717171"/>
<path d="M16.5034 12.3972H13.6352C13.4987 12.3972 13.3882 12.2896 13.3882 12.1567C13.3882 12.0239 13.4987 11.9163 13.6352 11.9163H16.5034C16.6399 11.9163 16.7504 12.0239 16.7504 12.1567C16.7505 12.2896 16.6399 12.3972 16.5034 12.3972Z" fill="#717171"/>
<path d="M16.5034 13.7085H13.6352C13.4987 13.7085 13.3882 13.6009 13.3882 13.468C13.3882 13.3351 13.4987 13.2275 13.6352 13.2275H16.5034C16.6399 13.2275 16.7504 13.3351 16.7504 13.468C16.7505 13.6007 16.6399 13.7085 16.5034 13.7085Z" fill="#717171"/>
<path d="M12.8484 10.845C12.8484 11.0044 12.7156 11.1337 12.5519 11.1337C12.3882 11.1337 12.2554 11.0044 12.2554 10.845C12.2554 10.6857 12.3882 10.5564 12.5519 10.5564C12.7156 10.5564 12.8484 10.6857 12.8484 10.845Z" fill="#717171"/>
<path d="M12.8484 12.1566C12.8484 12.3159 12.7156 12.4452 12.5519 12.4452C12.3882 12.4452 12.2554 12.3159 12.2554 12.1566C12.2554 11.9972 12.3882 11.8679 12.5519 11.8679C12.7156 11.8679 12.8484 11.9972 12.8484 12.1566Z" fill="#717171"/>
<path d="M12.8484 13.468C12.8484 13.6274 12.7156 13.7566 12.5519 13.7566C12.3882 13.7566 12.2554 13.6274 12.2554 13.468C12.2554 13.3086 12.3882 13.1794 12.5519 13.1794C12.7156 13.1794 12.8484 13.3086 12.8484 13.468Z" fill="#717171"/>
</svg>
