<svg xmlns="http://www.w3.org/2000/svg" width="40" height="40" viewBox="0 0 40 40" fill="none">
  <path d="M20 3.33325C10.8 3.33325 3.33337 10.7999 3.33337 19.9999C3.33337 29.1999 10.8 36.6666 20 36.6666C29.2 36.6666 36.6667 29.1999 36.6667 19.9999C36.6667 10.7999 29.2 3.33325 20 3.33325ZM20 9.99992C23.2167 9.99992 25.8334 12.6166 25.8334 15.8333C25.8334 19.0499 23.2167 21.6666 20 21.6666C16.7834 21.6666 14.1667 19.0499 14.1667 15.8333C14.1667 12.6166 16.7834 9.99992 20 9.99992ZM20 33.3333C16.6167 33.3333 12.6167 31.9666 9.76671 28.5333C12.686 26.2428 16.2894 24.9979 20 24.9979C23.7107 24.9979 27.314 26.2428 30.2334 28.5333C27.3834 31.9666 23.3834 33.3333 20 33.3333Z" fill="#801317"/>
</svg>