<svg width="16" height="14" viewBox="0 0 16 14" fill="none" xmlns="http://www.w3.org/2000/svg">
<path d="M6.66062 10.7034L3.53402 13.0611C3.3791 13.1863 3.2101 13.2452 3.02701 13.238C2.84392 13.2313 2.68196 13.1793 2.54112 13.0819C2.40028 12.9846 2.29127 12.8524 2.21409 12.6855C2.13635 12.5186 2.13269 12.3378 2.20311 12.143L3.40727 8.28314L0.344047 6.13411C0.175041 6.02284 0.0694129 5.87679 0.0271616 5.69596C-0.0150898 5.51514 -0.00804783 5.34822 0.0482873 5.19522C0.104622 5.04221 0.203209 4.90646 0.344047 4.78795C0.484885 4.66999 0.65389 4.61102 0.851063 4.61102H4.63256L5.85785 0.605066C5.92827 0.410332 6.03756 0.260665 6.18572 0.156065C6.33332 0.052022 6.49162 0 6.66062 0C6.82963 0 6.98793 0.052022 7.13553 0.156065C7.28369 0.260665 7.39298 0.410332 7.4634 0.605066L8.68869 4.61102H12.4702C12.6674 4.61102 12.8364 4.66999 12.9772 4.78795C13.118 4.90646 13.2166 5.04221 13.273 5.19522C13.3293 5.34822 13.3363 5.51514 13.2941 5.69596C13.2518 5.87679 13.1462 6.02284 12.9772 6.13411L9.91398 8.28314L11.1181 12.143C11.1886 12.3378 11.1852 12.5186 11.108 12.6855C11.0303 12.8524 10.921 12.9846 10.7801 13.0819C10.6393 13.1793 10.4773 13.2313 10.2942 13.238C10.1112 13.2452 9.94215 13.1863 9.78723 13.0611L6.66062 10.7034Z" fill="white"/>
</svg>
