<?xml version="1.0" encoding="UTF-8"?>
<!DOCTYPE svg PUBLIC "-//W3C//DTD SVG 1.1//EN" "http://www.w3.org/Graphics/SVG/1.1/DTD/svg11.dtd">
<!-- Creator: CorelDRAW -->
<svg xmlns="http://www.w3.org/2000/svg" xml:space="preserve" width="1.04666in" height="0.265299in" version="1.1" style="shape-rendering:geometricPrecision; text-rendering:geometricPrecision; image-rendering:optimizeQuality; fill-rule:evenodd; clip-rule:evenodd"
viewBox="0 0 1046.66 265.3"
 xmlns:xlink="http://www.w3.org/1999/xlink"
 xmlns:xodm="http://www.corel.com/coreldraw/odm/2003">
 <defs>
  <style type="text/css">
   <![CDATA[
    .fil0 {fill:black}
    .fil2 {fill:#262529}
    .fil5 {fill:#820408}
    .fil3 {fill:#EE2F3E}
    .fil1 {fill:white}
    .fil6 {fill:#820408;fill-rule:nonzero}
    .fil4 {fill:white;fill-rule:nonzero}
   ]]>
  </style>
 </defs>
 <g id="Layer_x0020_1">
  <metadata id="CorelCorpID_0Corel-Layer"/>
  <path class="fil0" d="M131.65 163.81c28.94,11.96 42.71,47.11 39.98,69.28 -2.52,20.42 -57.68,13.08 -57.68,29.86l0 2.29 -55.73 0 -0.17 0 0.15 -17.52 -15.72 -17.92c0,0 13.36,-15.78 19.26,-16.62 7.4,-1.05 -26.63,-14.81 12.46,-28.76l57.46 -20.61z"/>
  <path class="fil0" d="M40.31 163.81c-28.94,11.96 -42.7,47.11 -39.97,69.28 3.35,27.22 71.41,43.55 63.88,18.6 -2.31,-7.66 -6.65,-11.02 -6.65,-11.02l10.07 -12.54c0,0 38.93,-26.8 33.04,-27.64 -7.4,-1.05 -11.56,-12.38 -50.65,-26.34l-9.72 -10.35z"/>
  <path class="fil0" d="M52.37 103.06c-1.67,-1.52 -10.21,-3.72 -14.77,-15.08 -6.08,-15.13 2.76,-32.65 19.09,-36.38 5.07,-1.16 22.58,-0.68 28.9,-0.68 6.29,0 24.02,-0.48 29.04,0.71 23.18,5.54 28.25,35.85 8.8,48.8l-4.63 2.63c0.39,0.68 1.19,1.56 1.72,2.25 10.07,13.1 11.8,31.54 4.32,46.17 -16.72,32.72 -62.5,31.87 -78.5,0.01 -5.9,-11.76 -6.31,-26.54 -0.17,-38.92 2.98,-5.99 4.17,-6.19 6.21,-9.51zm-34.45 21.41c0.12,0.06 0.04,-0.06 0.28,0.35l4.26 7.49c2.86,4.51 4.93,6.87 8.22,10.6 4.73,5.36 3.72,4.52 2.46,9.39 30.09,66.5 101.74,29.28 104.94,-2.48 -2.13,-6.08 -1.13,-4.35 4.84,-11.18 2.65,-3.14 9.89,-11.79 10.65,-15.33 -3.39,-0.11 -5.05,-0.85 -6.67,-2.72 -1.94,-2.24 -1.56,-4.53 -1.56,-7.87 0,-11.92 -0.24,-25.77 -0,-37.42 0.06,-3.03 1.56,-4.9 3.41,-6.01 2.59,-1.56 2.38,-0.87 5.44,-0.42 -1.05,-5.2 -3.91,-15.3 -6.97,-19.65 -3.67,-5.21 -8.59,-10.91 -13.59,-14.88 -5.07,-4.03 -10.57,-7.97 -17.52,-10.95 -10.16,-4.37 -6.21,-16.89 -14.69,-18.87 0.11,1.59 -1.5,11.17 -2.54,11.82 -0.3,-0.6 0.08,-7.39 -4.13,-10.31 -1.1,2.23 -2.62,4.29 -5.72,4.92 0.52,-1.47 2.32,-7.98 -2.78,-10.91 -1.17,7.36 -5.06,5 -7.42,12.16 -1.91,-0.18 -1.72,-4.39 -0.79,-6.32 -5.14,1.69 -9.99,4.86 -10.35,10.62 -1.76,-1.8 -4.78,-5.57 -5.57,-7.47 -4.41,2.9 -4.93,10.5 -2.14,12.3 -13.08,2.53 -30.89,19.99 -37.65,30.73 -1.68,4.05 -3.85,13.06 -4.46,16.96 6,-1.43 7.91,0.26 8.08,6.31 0.31,11.02 0,26.14 0,37.65 0,3.45 0.3,5.61 -1.71,7.81 -2.91,3.19 -5.75,2.15 -6.61,2.78l0.3 0.94z"/>
  <path class="fil1" d="M52.37 103.06c-2.04,3.32 -3.23,3.52 -6.21,9.51 -6.14,12.38 -5.73,27.16 0.17,38.92 16,31.86 61.79,32.71 78.5,-0.01 7.47,-14.63 5.74,-33.07 -4.32,-46.17 -0.53,-0.69 -1.32,-1.57 -1.72,-2.25l4.63 -2.63c19.46,-12.94 14.39,-43.26 -8.8,-48.8 -5.02,-1.2 -22.76,-0.71 -29.04,-0.71 -6.32,0 -23.83,-0.48 -28.9,0.68 -16.33,3.74 -25.17,21.25 -19.09,36.38 4.56,11.35 13.1,13.56 14.77,15.08z"/>
  <path class="fil2" d="M66.89 107.89c19.31,-2.39 17.63,9.67 12.1,8.93 -2.86,-0.38 -2.84,-5.5 -5.56,-7.15 -2.71,-1.64 -6.55,-1.78 -6.55,-1.78z"/>
  <path class="fil2" d="M104.21 107.89c-19.31,-2.39 -17.63,9.67 -12.11,8.93 2.86,-0.38 2.85,-5.5 5.56,-7.15 2.71,-1.64 6.55,-1.78 6.55,-1.78z"/>
  <path class="fil3" d="M54.04 137.89c0,0 16.89,16.58 38.79,11.81 21.9,-4.76 24.21,-12.5 24.21,-12.5 0.46,-0.74 -5.7,16.65 -23.55,20.11 -17.8,3.45 -30.14,-5.1 -39.45,-19.43z"/>
  <path class="fil0" d="M87.18 63.94c-7.36,0 -8.11,-0.74 -14.82,-2.08l-9.64 -1.39c-10.39,-0.8 -13.68,0.92 -23.48,2.75 -0.67,0.13 -0.9,0.01 -0.97,0.49l0 3.11c0,2.15 0.99,2.9 2.01,4.05 0.39,0.43 1.05,1.28 1.3,1.78 0.55,1.07 1.59,5.46 2.14,7.11 0.7,2.08 2.39,6.83 3.69,8.54 2.62,3.45 9.02,5.17 13.32,5.17 4.2,0 7.85,-0.2 11.08,-2.14 1.76,-1.07 3.31,-2.37 4.61,-3.94 0.96,-1.17 1.56,-2 2.35,-3.31 3.54,-5.92 2.41,-6.19 4.09,-10.22 0.75,-1.79 1.18,-2.24 3.53,-2.05 1.65,0.13 2.29,-0.3 3.6,2.06 0.34,0.61 0.58,1.26 0.79,2 1.69,6.07 4.6,12.31 10.48,15.26 7.15,3.58 17.3,3.15 23.27,-2.74l1.32 -1.56c0.87,-1.21 1.47,-2.49 1.98,-3.89 0.25,-0.7 0.52,-1.44 0.71,-2.17 0.69,-2.65 1.83,-8.92 3.86,-10.56l0.89 -0.6c0.26,-0.22 0.38,-0.59 0.42,-0.99l0 -0.87c-0.03,-0.47 -0.1,-0.92 -0.11,-1.2 -0,-0.43 0.07,-0.86 0.11,-1.26l0 -0.8c-0.09,-0.57 -0.48,-1 -1.61,-1.19 -3.05,-0.5 -4.4,-1.17 -7.11,-1.74 -1.54,-0.33 -3.39,-0.6 -5.02,-0.84 -7.61,-1.12 -11.83,-0.21 -19.17,1.25 -2.19,0.44 -4.23,0.86 -6.51,1.24 -2.2,0.37 -4.62,0.75 -7.1,0.75z"/>
  <path class="fil3" d="M62.63 86.74c0.5,0 1.32,-0.6 1.82,-0.93 0.67,-0.45 2.34,-1.64 2.94,-2.22 0.13,-0.13 0.21,-0.17 0.34,-0.3 0.14,-0.14 0.19,-0.18 0.34,-0.3l0.97 -1c0.17,-0.21 0.55,-0.58 0.89,-1.04 0.76,-1.02 1.48,-2.1 1.83,-3.37 0.57,-2.07 0.46,-4.04 -0.65,-5.9 -1.72,-2.89 -5.77,-3.62 -8.4,-1.86 -3.08,-2.06 -8.54,-0.93 -9.34,4.65 -0.28,1.95 0.44,4 1.5,5.59 0.99,1.49 1.63,2.07 2.89,3.29 0.35,0.34 1.85,1.53 2.3,1.83 0.35,0.24 2.24,1.56 2.57,1.56z"/>
  <path class="fil3" d="M111.51 86.74c0.49,0 1.32,-0.6 1.82,-0.93 0.67,-0.45 2.34,-1.64 2.93,-2.22 0.13,-0.13 0.21,-0.17 0.35,-0.3 0.14,-0.14 0.19,-0.18 0.34,-0.3l0.98 -1c0.17,-0.21 0.54,-0.58 0.89,-1.04 0.76,-1.02 1.48,-2.1 1.83,-3.37 0.58,-2.07 0.46,-4.04 -0.65,-5.9 -1.72,-2.89 -5.77,-3.62 -8.4,-1.86 -3.08,-2.06 -8.54,-0.93 -9.34,4.65 -0.28,1.95 0.44,4 1.5,5.59 1,1.49 1.63,2.07 2.89,3.29 0.36,0.34 1.86,1.53 2.3,1.83 0.35,0.24 2.24,1.56 2.57,1.56z"/>
  <polygon class="fil1" points="53.78,207.13 78.78,207.13 78.78,219.98 53.78,219.98 "/>
  <polygon class="fil1" points="92.82,207.13 117.82,207.13 117.82,219.98 92.82,219.98 "/>
  <path class="fil1" d="M58.07 222.75l20.71 0 0 5.85c-1.66,-0.56 -3.48,-0.68 -5.31,-0.01 -3.99,1.46 -6.76,6.57 -4.46,12.07 1.52,3.61 5.37,7.16 7.94,9.94l1.82 1.95 0 12.69 -20.71 0 0 -42.49z"/>
  <path class="fil1" d="M92.82 221.85l21.13 0 0 43.39 -21.13 0 0 -13.42c3.55,-3.83 7.17,-7.81 7.71,-8.57 4.31,-6.01 2.86,-13.02 -2.52,-15.1 -1.82,-0.7 -3.57,-0.64 -5.19,-0.12l0 -6.18z"/>
  <path class="fil1" d="M90.29 207.29l-9.34 0 0 22.48c2.61,1.58 3.28,3.41 4.76,3.31 1.13,-0.07 1.88,-1.3 2.61,-1.91 0.63,-0.52 1.29,-1.01 1.98,-1.44l0 -22.45zm-9.34 47.74l0 10.27 9.34 0 0 -10.24c-2.52,2.7 -4.55,4.83 -4.72,4.92l-4.62 -4.95z"/>
  <path class="fil3" d="M85.58 256.73c0.35,-0.19 11.18,-11.85 12.06,-13.07 3.47,-4.84 2.31,-10.5 -2.03,-12.17 -2.94,-1.14 -5.62,0.2 -7.82,2.03 -0.59,0.49 -1.19,1.47 -2.1,1.54 -1.26,0.08 -1.8,-1.58 -4.22,-2.89 -1.67,-0.91 -3.65,-1.34 -5.64,-0.61 -3.21,1.18 -5.45,5.3 -3.59,9.73 1.22,2.91 4.32,5.78 6.4,8.01l6.94 7.43z"/>
  <path class="fil4" d="M63.2 193.33c0.11,-2.13 1.03,-3.97 2.46,-5.3 1.41,-1.31 3.32,-2.11 5.44,-2.19 3.68,-0.12 8,1.99 11.31,7.57 1.38,2.33 2.38,4.15 3.09,5.56l0.44 0.85c0.54,-1.34 1.71,-3.8 3.26,-6.41 3.31,-5.58 7.63,-7.69 11.31,-7.57 2.12,0.07 4.03,0.87 5.44,2.19 1.43,1.33 2.34,3.17 2.46,5.3 0.19,3.55 -1.89,7.87 -7.69,11.74 -1.2,-0.36 -1.62,-1.16 -1.49,-2.25 4.87,-3.25 6.63,-6.66 6.48,-9.35 -0.07,-1.39 -0.67,-2.59 -1.6,-3.46 -0.94,-0.88 -2.24,-1.42 -3.69,-1.47 -2.81,-0.09 -6.18,1.65 -8.9,6.25 -5.45,8.15 -3.57,13.59 -11.44,0 -2.72,-4.6 -6.1,-6.34 -8.91,-6.25 -1.44,0.05 -2.74,0.59 -3.69,1.47 -0.93,0.87 -1.53,2.07 -1.6,3.46 -0.15,2.7 1.61,6.11 6.49,9.35 2.56,5.98 -9.62,-1.33 -9.18,-9.49z"/>
  <path class="fil2" d="M131.65 163.81c28.94,11.96 42.71,47.11 39.98,69.28 -3.36,27.22 -71.42,43.55 -63.88,18.6 2.31,-7.66 6.65,-11.02 6.65,-11.02l18.53 -17.02c0,0 -7.15,-21 -1.26,-21.84 7.4,-1.05 -48.83,-13.69 -9.74,-27.65l9.72 -10.35z"/>
  <path class="fil0" d="M131.65 163.81c28.94,11.96 42.71,47.11 39.98,69.28 -3.36,27.22 -71.42,43.55 -63.88,18.6 2.31,-7.66 6.65,-11.02 6.65,-11.02l18.53 -17.02c0,0 -7.15,-21 -1.26,-21.84 7.4,-1.05 -48.83,-13.69 -9.74,-27.65l9.72 -10.35z"/>
  <path class="fil0" d="M40.31 163.81c-28.94,11.96 -42.7,47.11 -39.97,69.28 3.35,27.22 71.41,43.55 63.88,18.6 -2.31,-7.66 -6.65,-11.02 -6.65,-11.02l-18.54 -17.02c0,0 7.15,-21 1.26,-21.84 -7.4,-1.05 48.83,-13.69 9.74,-27.65l-9.72 -10.35z"/>
  <path class="fil5" d="M23.18 83.72c-0.8,-20.41 3.09,-34.19 16.65,-48.32 2.4,-2.51 5.56,-5.04 8.81,-7.31 10.42,-7.29 23.62,-11.39 37.3,-11.41 23.18,-0.02 43.33,11.56 53.69,27.27 9.33,14.16 9.06,23.09 9.16,39.76 0,-0.28 5.62,0.13 5.62,-0.15 0.03,-10.7 0.5,-18.58 -3.26,-29.04 -1.08,-3 -1.92,-4.84 -3.38,-7.66 -5.85,-11.3 -16,-21.08 -28.29,-27.34 -10.77,-5.48 -22.41,-8.15 -36.61,-7.85 -16.32,1.35 -27.39,5.16 -39.37,13.81 -15.33,11.06 -25.83,29.51 -25.96,49.15 -0.01,1.68 -0.07,6.48 -0.1,11.12 0,0.1 5.75,-2.12 5.75,-2.02z"/>
  <path class="fil0" d="M158.57 111.49c0,1.57 0.18,4.91 -0.19,6.2 -0.57,2.01 -2.85,3.21 -2.86,3.31 -10.63,1.95 -9.26,-4.77 -9.26,-10.89l0 -31.06c0,-3.98 -0.43,-6.22 2.36,-8.07 2.22,-1.48 6.33,-1.19 8.19,0.43 2.46,2.15 1.69,4.78 1.78,8.56 8.63,1.28 13.05,29.67 -0.02,31.51z"/>
  <path class="fil0" d="M116.1 23.37c-10.16,-4.37 -6.21,-16.89 -14.69,-18.87 0.11,1.59 -1.5,11.17 -2.54,11.82 -0.3,-0.6 0.08,-7.39 -4.13,-10.31 -1.1,2.23 -2.62,4.29 -5.72,4.92 0.52,-1.47 2.32,-7.98 -2.78,-10.91 -1.17,7.36 -5.06,5 -7.42,12.16 -1.91,-0.18 -1.72,-4.39 -0.79,-6.32 -5.14,1.69 -9.99,4.86 -10.35,10.62 -1.76,-1.8 -4.78,-5.57 -5.57,-7.47 -3.49,2.3 -4.54,7.54 -3.44,10.52 0.19,0.52 2.2,3.43 3.7,5.43 0.76,1.01 53.54,-1.7 53.74,-1.58z"/>
  <path class="fil6" d="M348.15 73.26l0 0 -56.93 166.21 -32.01 0 -56.93 -166.21 24.48 0 48.53 141.61 48.49 -141.61 24.37 0zm16.4 164.44l0 0 0 -118.86 23.1 0 0 118.86 -23.1 0zm0 -143.7l0 0 0 -21.92 23.1 0 0 21.92 -23.1 0zm108.57 26.65l0 0c11,0 21.01,2.68 30,8 9.03,5.36 16.2,12.58 21.57,21.61 5.36,9.07 8,19.04 8,29.96 0,10.96 -2.64,20.94 -8,30 -5.36,9.03 -12.54,16.24 -21.57,21.56 -8.99,5.36 -19,8.04 -30,8.04 -10.88,0 -20.81,-2.64 -29.8,-7.96 -9.03,-5.32 -16.17,-12.42 -21.49,-21.33 -5.32,-8.87 -8.08,-18.85 -8.32,-29.85l0 0 0 -106.72 23.1 0 0 59.26c5.09,-4.02 10.72,-7.09 16.91,-9.3 6.19,-2.21 12.73,-3.27 19.59,-3.27zm0 96.07l0 0c10.05,0 18.69,-3.55 25.78,-10.69 7.13,-7.13 10.69,-15.73 10.69,-25.82 0,-10.09 -3.55,-18.69 -10.69,-25.78 -7.1,-7.13 -15.73,-10.68 -25.78,-10.68 -10.02,0 -18.61,3.55 -25.78,10.68 -7.14,7.1 -10.72,15.69 -10.72,25.78 0,10.09 3.59,18.69 10.72,25.82 7.17,7.14 15.77,10.69 25.78,10.69zm337.27 -31.78l0 0c0,10.09 3.55,18.69 10.69,25.82 7.13,7.14 15.73,10.69 25.82,10.69l0 23.1c-11.04,0 -21.05,-2.68 -30.04,-8.04 -9.03,-5.32 -16.2,-12.54 -21.52,-21.56 -5.36,-9.07 -8.04,-19.04 -8.04,-30l23.1 0zm0 -35.8l0 0 0 35.8 -23.1 0 0 -106.25 23.1 0 0 47.35 22.28 0 0 23.1 -22.28 0zm103.06 -23.77l0 0c10.92,0 20.89,2.68 29.96,8 9.03,5.36 16.2,12.5 21.49,21.45 5.28,8.91 7.96,18.92 8.12,30l0 0 0 11.12 -1.81 0 0 0.12 -58.7 0 0 -23.1 35.48 0c-2.64,-7.25 -7.06,-13.13 -13.25,-17.7 -6.19,-4.54 -13.28,-6.78 -21.29,-6.78 -10.02,0 -18.61,3.55 -25.78,10.68 -7.14,7.1 -10.72,15.69 -10.72,25.78 0,7.02 1.85,13.25 5.6,18.73 3.74,5.48 8.4,9.78 13.96,12.89 5.6,3.11 11.35,4.73 17.27,4.89l-0.55 23.1c-14.94,-0.55 -28.35,-6.07 -40.21,-16.64 -12.78,-12.22 -19.16,-26.57 -19.16,-42.97 0,-10.92 2.68,-20.89 8.08,-29.96 5.4,-9.03 12.57,-16.24 21.6,-21.61 8.99,-5.32 18.96,-8 29.93,-8zm73.61 60.16l0 0c0,-10.92 2.68,-20.9 8.08,-29.93 5.4,-8.99 12.57,-16.2 21.6,-21.6 8.99,-5.36 18.96,-8.08 29.93,-8.08l0 23.1c-10.02,0 -18.61,3.59 -25.78,10.76 -7.14,7.13 -10.72,15.73 -10.72,25.74l0 59.02 -23.1 0 0 -59.02zm-380.72 -60.16l0 0c10.92,0 20.89,2.68 29.96,8 9.03,5.36 16.2,12.5 21.49,21.45 5.28,8.91 7.96,18.92 8.12,30l0 0 0 11.12 -1.81 0 0 0.12 -58.7 0 0 -23.1 35.48 0c-2.64,-7.25 -7.06,-13.13 -13.25,-17.7 -6.19,-4.54 -13.28,-6.78 -21.29,-6.78 -10.02,0 -18.61,3.55 -25.78,10.68 -7.14,7.1 -10.72,15.69 -10.72,25.78 0,7.02 1.85,13.25 5.6,18.73 3.74,5.48 8.4,9.78 13.96,12.89 5.6,3.11 11.35,4.73 17.27,4.89l-0.55 23.1c-14.94,-0.55 -28.35,-6.07 -40.21,-16.64 -12.78,-12.22 -19.16,-26.57 -19.16,-42.97 0,-10.92 2.68,-20.89 8.08,-29.96 5.4,-9.03 12.57,-16.24 21.6,-21.61 8.99,-5.32 18.96,-8 29.93,-8zm164.56 24.01l0 0 -64.46 70.81 64.46 0 0 24.48 -97.93 0 -0.12 -23.57 64.46 -73.21 -55.12 0 0 -22.19 88.59 0 0.12 23.69z"/>
  <path class="fil0" d="M11.72 111.49c0,1.57 -0.18,4.91 0.19,6.2 0.57,2.01 2.84,3.21 2.86,3.31 10.63,1.95 9.26,-4.77 9.26,-10.89l0 -31.06c0,-3.98 0.43,-6.22 -2.36,-8.07 -2.22,-1.48 -6.33,-1.19 -8.2,0.43 -2.46,2.15 -1.68,4.78 -1.77,8.56 -8.63,1.28 -13.05,29.67 0.02,31.51z"/>
 </g>
</svg>
